<svg width="225" height="319" viewBox="0 0 225 319" fill="none" xmlns="http://www.w3.org/2000/svg">
<path d="M206.784 0.580934L202.211 23.2176L224.101 15.8598L206.784 0.580934ZM4.3344 318.256C7.33513 296.001 23.7256 274.562 46.6891 252.646C69.6367 230.744 98.6131 208.833 126.408 185.343C154.098 161.941 180.498 137.058 197.779 109.493C215.101 81.8627 223.311 51.4482 214.453 17.1379L210.58 18.1378C219.1 51.1382 211.278 80.4291 194.39 107.368C177.46 134.373 151.472 158.923 123.826 182.288C96.2848 205.564 66.9784 227.752 43.9274 249.752C20.8923 271.737 3.56837 294.002 0.370271 317.721L4.3344 318.256Z" fill="black"/>
</svg>

<svg width="227" height="322" viewBox="0 0 227 322" fill="none" xmlns="http://www.w3.org/2000/svg">
<path d="M211.579 18.045C273.912 157.436 18.7713 211.965 0.614072 321.548L6.72272 321.559C19.9609 229.939 280.838 154.717 216.228 16.251L224.03 13.362L205.938 0.546651L203.303 21.0623L211.579 18.045Z" fill="black"/>
</svg>

<svg width="219" height="328" viewBox="0 0 219 328" fill="none" xmlns="http://www.w3.org/2000/svg">
<path d="M13.817 11.933C-69.2179 127.068 255.899 206.716 208.698 327.68L215.427 327.683C251.559 189.74 -53.0606 134.548 17.8644 14.7105L25.5906 19.3194L25.5845 0.939613L7.01401 6.84145L13.817 11.933Z" fill="black"/>
</svg>
