<svg width="228" height="329" viewBox="0 0 228 329" fill="none" xmlns="http://www.w3.org/2000/svg">
  <path d="M20.4232 0.201251L0.533946 11.938L20.6429 23.2942L20.4232 0.201251ZM222.532 328.29C234.434 297.118 223.721 268.764 202.35 242.338C181.023 215.967 148.782 191.126 116.843 166.752C84.7885 142.29 53.0506 118.306 32.2419 93.4929C11.4703 68.7241 1.97638 43.6156 13.417 16.6487L9.73467 15.0865C-2.56259 44.0726 7.98166 70.7891 29.177 96.0632C50.3353 121.293 82.4932 145.57 114.416 169.932C146.455 194.382 178.273 218.928 199.24 244.853C220.162 270.724 229.977 297.575 218.795 326.863L222.532 328.29Z" fill="black">
  </path>
</svg>

<!-- <svg width="274" height="388" viewBox="0 0 274 388" fill="none" xmlns="http://www.w3.org/2000/svg">
<path d="M1.15625 1.77795C232.688 61.0959 72.2104 248.544 273.126 386.315M1.15625 1.77795H26.4069L22.6573 15.46L1.15625 1.77795Z" stroke="black" stroke-width="2" stroke-linejoin="round">
<animate attributeName="d" dur="500ms" repeatCount="indefinite" value="M213.266 1.58704C-13.3193 108.083 232.526 215.711 1.40918 383.385M213.266 1.58704L167.293 9.90781L180.693 32.018L213.266 1.58704Z"/>
</svg> -->
<!-- <svg width="215" height="385" viewBox="0 0 215 385" fill="none" xmlns="http://www.w3.org/2000/svg">
<path d="M167.293 9.90781L213.266 1.58704L180.693 32.018L174.842 22.3637L167.293 9.90781Z" fill="black"/>
<path d="M213.266 1.58704C-13.3193 108.083 232.526 215.711 1.40918 383.385M213.266 1.58704L167.293 9.90781L180.693 32.018L213.266 1.58704Z" stroke="black" stroke-width="2" stroke-linejoin="round"/>
</svg> -->      
<!-- <svg width="274" height="388" viewBox="0 0 274 388" fill="none" xmlns="http://www.w3.org/2000/svg">
      <path d="M1.15625 1.77795C232.688 61.0959 72.2104 248.544 273.126 386.315M1.15625
      1.77795H26.4069L22.6573 15.46L1.15625 1.77795Z"
      stroke="black" stroke-width="2" stroke-linejoin="round">
      <animate attributeName="d" dur="2s" repeatCount="indefinite"
      to="M213.266 1.58704C-13.3193 108.083 232.526 215.711 1.40918 383.385M213.266 1.58704L167.293
      9.90781L180.693 32.018L213.266 1.58704Z"/>
      </path>
      </svg> -->
<svg width="274" height="388" viewBox="0 0 274 388" fill="none" xmlns="http://www.w3.org/2000/svg">
<path d="M1.15625 1.77795H26.4069L24.53 8.6265L22.6573 15.46L1.15625 1.77795Z" fill="black"/>
<path d="M1.15625 1.77795C232.688 61.0959 72.2104 248.544 273.126 386.315M1.15625 1.77795H26.4069L22.6573 15.46L1.15625 1.77795Z" stroke="black" stroke-width="2" stroke-linejoin="round"/>
</svg>
<svg width="78" height="158" viewBox="0 0 78 158" fill="none" xmlns="http://www.w3.org/2000/svg">
<path d="M10.5059 156.855H1.37988C1.37988 156.855 37.5993 120.526 52.0635 92.5562C65.4949 66.5836 61.1147 18.7934 61.1147 18.7934L52.0635 22.4137L58.852 1.59723L76.7069 13.4232L68.3552 16.0783C68.3552 16.0783 72.7399 66.1082 58.852 95.2714C45.679 122.934 10.5059 156.855 10.5059 156.855Z" fill="black" stroke="black" stroke-width="2" stroke-linejoin="round"/>
</svg>
<svg width="228" height="329" viewBox="0 0 2028 329" fill="none" xmlns="http://www.w3.org/2000/svg">
<path d="M187.669 18.5885C242.587 158.699 12.2944 232.088 0.414313 324.279L5.8207 324.279C17.7008 232.088 246.705 156.886 191.787 16.7755L198.697 13.8553L182.708 0.995853L180.339 21.6386L187.669 18.5885Z" fill="black"/>
</svg>
