<svg width="39" height="40" viewBox="0 0 39 40" fill="none" xmlns="http://www.w3.org/2000/svg">
<path d="M8.32804 21.9789V18.1456H23.6614L16.953 11.4372L19.6747 8.71557L31.0214 20.0622L19.6747 31.4089L16.953 28.6872L23.6614 21.9789H8.32804ZM38.9947 20.0622C38.9947 25.1455 36.9754 30.0207 33.3809 33.6151C29.7865 37.2096 24.9114 39.2289 19.828 39.2289C17.311 39.2289 14.8187 38.7331 12.4933 37.7699C10.1679 36.8067 8.05495 35.3949 6.27516 33.6151C2.68072 30.0207 0.661377 25.1455 0.661377 20.0622C0.661377 14.9789 2.68072 10.1038 6.27516 6.50935C9.86961 2.91491 14.7447 0.895569 19.828 0.895569C22.345 0.895569 24.8374 1.39133 27.1628 2.35454C29.4882 3.31776 31.6011 4.72957 33.3809 6.50935C35.1607 8.28914 36.5725 10.4021 37.5357 12.7275C38.4989 15.0529 38.9947 17.5452 38.9947 20.0622ZM35.1614 20.0622C35.1614 15.9956 33.5459 12.0955 30.6703 9.21993C27.7948 6.34437 23.8947 4.7289 19.828 4.7289C15.7614 4.7289 11.8613 6.34437 8.98574 9.21993C6.11018 12.0955 4.49471 15.9956 4.49471 20.0622C4.49471 24.1289 6.11018 28.029 8.98574 30.9045C11.8613 33.7801 15.7614 35.3956 19.828 35.3956C23.8947 35.3956 27.7948 33.7801 30.6703 30.9045C33.5459 28.029 35.1614 24.1289 35.1614 20.0622Z" fill="black"/>
</svg>
