<svg width="30" height="30" viewBox="0 0 30 30" fill="none" xmlns="http://www.w3.org/2000/svg">
<path d="M3.74512 20.9209C4.97893 23.4154 6.97999 25.4486 9.45449 26.7221C11.9113 27.9836 14.7123 28.4095 17.433 27.9355C20.1621 27.4556 22.6625 26.1049 24.5599 24.0855C26.4749 22.047 27.6941 19.4537 28.0424 16.6786C28.396 13.8972 27.8632 11.0751 26.5199 8.614C25.1892 6.17206 23.1097 4.22185 20.5874 3.05046C18.0815 1.88987 15.2654 1.57856 12.5666 2.16379C9.86866 2.74858 7.65637 4.07858 5.82908 6.1815C5.60741 6.41483 4.75574 7.35692 4.04991 8.77879" stroke="black" stroke-width="3.33333" stroke-linecap="round" stroke-linejoin="round"/>
<path d="M10.5478 8.89402L3.19781 10.2167L1.89844 2.73547" stroke="black" stroke-width="3.33333" stroke-linecap="round" stroke-linejoin="round"/>
</svg>
