<svg width="21" height="25" viewBox="0 0 21 25" fill="none" xmlns="http://www.w3.org/2000/svg">
<path d="M19.5234 11.25C19.699 11.2499 19.869 11.3114 20.0038 11.4238C20.1387 11.5362 20.2298 11.6923 20.2614 11.865L20.2734 12V21C20.2736 21.952 19.9116 22.8685 19.2609 23.5635C18.6102 24.2585 17.7195 24.68 16.7694 24.7425L16.5234 24.75H4.52344C3.57136 24.7501 2.65487 24.3881 1.95987 23.7374C1.26487 23.0867 0.843395 22.196 0.780939 21.246L0.773439 21V12C0.773094 11.8126 0.842932 11.6318 0.969201 11.4933C1.09547 11.3548 1.26902 11.2686 1.45567 11.2517C1.64232 11.2347 1.82855 11.2883 1.97769 11.4018C2.12682 11.5153 2.22805 11.6805 2.26144 11.865L2.27344 12V21C2.27347 21.5593 2.48182 22.0986 2.85787 22.5126C3.23392 22.9266 3.7507 23.1858 4.30744 23.2395L4.52344 23.25H16.5234C17.0825 23.25 17.6216 23.0418 18.0356 22.6661C18.4496 22.2904 18.7089 21.7739 18.7629 21.2175L18.7734 21V12C18.7734 11.8011 18.8525 11.6103 18.9931 11.4696C19.1338 11.329 19.3245 11.25 19.5234 11.25ZM3.62944 6.58497L9.99244 0.218971C10.1167 0.094958 10.2806 0.0184782 10.4555 0.0028545C10.6303 -0.0127692 10.8051 0.0334537 10.9494 0.133471L11.0544 0.218971L17.4174 6.58347C17.5503 6.71575 17.6288 6.89301 17.6375 7.08031C17.6462 7.2676 17.5844 7.45135 17.4643 7.59535C17.3442 7.73934 17.1745 7.83313 16.9887 7.85823C16.8029 7.88334 16.6144 7.83793 16.4604 7.73097L16.3569 7.64397L11.2734 2.56047V16.5C11.2735 16.6755 11.212 16.8455 11.0996 16.9804C10.9872 17.1152 10.8311 17.2064 10.6584 17.238L10.5234 17.25C10.3479 17.25 10.1779 17.1885 10.0431 17.0761C9.9082 16.9638 9.81704 16.8076 9.78544 16.635L9.77344 16.5V2.56047L4.68844 7.64547C4.56425 7.7691 4.40069 7.84535 4.22615 7.86097C4.05161 7.87658 3.87711 7.83059 3.73294 7.73097L3.62794 7.64397C3.50393 7.51969 3.42745 7.35584 3.41182 7.18096C3.3962 7.00608 3.44242 6.83127 3.54244 6.68697L3.62944 6.58347L9.99244 0.218971L3.62944 6.58497Z" fill="black"/>
</svg>
